<?xml version="1.0" encoding="UTF-8" standalone="no"?>
<!-- Created with Inkscape (http://www.inkscape.org/) --><svg height="297mm" id="svg2" inkscape:version="0.43" sodipodi:docbase="/home/aitor" sodipodi:docname="basketball.svg" sodipodi:version="0.32" width="210mm" xmlns="http://www.w3.org/2000/svg" xmlns:cc="http://web.resource.org/cc/" xmlns:dc="http://purl.org/dc/elements/1.1/" xmlns:inkscape="http://www.inkscape.org/namespaces/inkscape" xmlns:rdf="http://www.w3.org/1999/02/22-rdf-syntax-ns#" xmlns:sodipodi="http://inkscape.sourceforge.net/DTD/sodipodi-0.dtd" xmlns:svg="http://www.w3.org/2000/svg" xmlns:xlink="http://www.w3.org/1999/xlink">
  <metadata>
    <rdf:RDF xmlns:cc="http://web.resource.org/cc/" xmlns:dc="http://purl.org/dc/elements/1.1/" xmlns:rdf="http://www.w3.org/1999/02/22-rdf-syntax-ns#">
      <cc:Work rdf:about="">
        <dc:title>Aitor Avila</dc:title>
        <dc:description></dc:description>
        <dc:subject>
          <rdf:Bag>
            <rdf:li>unsorted</rdf:li>
          </rdf:Bag>
        </dc:subject>
        <dc:publisher>
          <cc:Agent rdf:about="http://www.openclipart.org/">
            <dc:title>Open Clip Art Library</dc:title>
          </cc:Agent>
        </dc:publisher>
        <dc:creator>
          <cc:Agent>
            <dc:title>Aitor Avila</dc:title>
          </cc:Agent>
        </dc:creator>
        <dc:rights>
          <cc:Agent>
            <dc:title>Aitor Avila</dc:title>
          </cc:Agent>
        </dc:rights>
        <dc:date>2006-03-26</dc:date>
        <dc:format>image/svg+xml</dc:format>
        <dc:type rdf:resource="http://purl.org/dc/dcmitype/StillImage"/>
        <cc:license rdf:resource="http://web.resource.org/cc/PublicDomain"/>
        <dc:language>es</dc:language>
      </cc:Work>
      <cc:License rdf:about="http://web.resource.org/cc/PublicDomain">
        <cc:permits rdf:resource="http://web.resource.org/cc/Reproduction"/>
        <cc:permits rdf:resource="http://web.resource.org/cc/Distribution"/>
        <cc:permits rdf:resource="http://web.resource.org/cc/DerivativeWorks"/>
      </cc:License>
    </rdf:RDF>
  </metadata>
  <defs id="defs4">
    <linearGradient id="linearGradient3155">
      <stop id="stop3157" offset="0" style="stop-color:#3c2018;stop-opacity:0.65979379;"/>
      <stop id="stop3159" offset="1" style="stop-color:#3c2018;stop-opacity:0;"/>
    </linearGradient>
    <linearGradient id="linearGradient3145">
      <stop id="stop3147" offset="0" style="stop-color:#ffffff;stop-opacity:0.67708331;"/>
      <stop id="stop3149" offset="1" style="stop-color:#ffffff;stop-opacity:0;"/>
    </linearGradient>
    <linearGradient id="linearGradient3122">
      <stop id="stop3124" offset="0" style="stop-color:#120000;stop-opacity:0.65625;"/>
      <stop id="stop3126" offset="1" style="stop-color:#000000;stop-opacity:0.77083331;"/>
    </linearGradient>
    <linearGradient id="linearGradient3110">
      <stop id="stop3112" offset="0" style="stop-color:#b37560;stop-opacity:0.88541669;"/>
      <stop id="stop3114" offset="1" style="stop-color:#000000;stop-opacity:0.77083331;"/>
    </linearGradient>
    <linearGradient id="linearGradient2225">
      <stop id="stop2227" offset="0" style="stop-color:#a43c0e;stop-opacity:1;"/>
      <stop id="stop2229" offset="1" style="stop-color:#ce907e;stop-opacity:1;"/>
    </linearGradient>
    <radialGradient cx="200.41653" cy="-23.926668" fx="200.41653" fy="-23.926668" gradientTransform="matrix(0.693877,1.387755,-2.491116,1.245564,332.3315,-100.9647)" gradientUnits="userSpaceOnUse" id="radialGradient3169" inkscape:collect="always" r="98" xlink:href="#linearGradient2225"/>
    <radialGradient cx="273.29874" cy="63.250378" fx="273.29874" fy="63.250378" gradientTransform="matrix(0.880672,4.11832e-2,-1.890621e-2,0.419246,33.80786,34.33884)" gradientUnits="userSpaceOnUse" id="radialGradient3171" inkscape:collect="always" r="79.5" xlink:href="#linearGradient3145"/>
    <radialGradient cx="293.28177" cy="140.94415" fx="293.28177" fy="140.94415" gradientTransform="matrix(1.104086,-0.313854,0.246807,0.868227,-69.59444,121.0385)" gradientUnits="userSpaceOnUse" id="radialGradient3173" inkscape:collect="always" r="82" xlink:href="#linearGradient3155"/>
  </defs>
  <sodipodi:namedview bordercolor="#666666" borderopacity="1.0" id="base" inkscape:current-layer="layer1" inkscape:cx="500.90625" inkscape:cy="912.75509" inkscape:document-units="px" inkscape:guide-bbox="true" inkscape:pageopacity="0.0" inkscape:pageshadow="2" inkscape:window-height="760" inkscape:window-width="1152" inkscape:window-x="0" inkscape:window-y="24" inkscape:zoom="1" pagecolor="#ffffff" showguides="true"/>
  <g id="layer1" inkscape:groupmode="layer" inkscape:label="Capa 1">
    <g id="g3163" transform="translate(-135,26)">
      <path d="M 380.47058,131.05737 A 98,98 0 1 1 380.46493,130.00469" id="path1350" sodipodi:cx="282.47058" sodipodi:cy="131.05737" sodipodi:end="6.2724434" sodipodi:open="true" sodipodi:rx="98" sodipodi:ry="98" sodipodi:start="0" sodipodi:type="arc" style="opacity:1;fill:#3c2018;fill-opacity:1;stroke:none;stroke-width:0.5;stroke-linecap:round;stroke-linejoin:bevel;stroke-miterlimit:4;stroke-dasharray:none;stroke-opacity:1" transform="translate(218.4278,-4.716578)"/>
      <path d="M 499,28.34375 C 468.52839,28.92337 441.45996,43.44857 423.875,65.78125 C 430.22779,63.68776 448.24209,58.69744 457.15625,66.21875 C 464.29749,72.24417 468.65685,75.77553 471.6875,82.9375 C 479.09448,80.37212 486.06068,78.19783 492.59375,76.34375 C 481.57659,48.65105 471.71874,33.40625 471.71875,33.40625 L 476.28125,31.84375 C 476.28125,31.84375 484.87276,43.40547 497.25,75.0625 C 504.62996,73.08626 511.44015,71.54125 517.71875,70.375 C 517.04071,68.22235 516.58228,66.45016 516.25,65.1875 C 514.54146,58.69516 512.15572,47.40473 517.28125,41.9375 C 522.40678,36.47027 529.25,33.0625 529.25,33.0625 L 535.03125,35.125 C 534.129,35.33792 519.67477,38.972 519.34375,52.875 C 519.21683,58.20525 520.4866,64.09887 522.3125,69.5625 C 565.7887,62.43467 582.02085,73.71582 585.40625,76.65625 C 568.36252,47.71478 536.88575,28.34375 500.90625,28.34375 C 500.27231,28.34375 499.63108,28.33175 499,28.34375 z M 439.84375,65.34375 C 433.18571,65.53245 425.3161,67.81577 421.375,69.09375 C 409.75367,85.20307 402.90625,104.97709 402.90625,126.34375 C 402.90625,130.65422 403.1783,134.89851 403.71875,139.0625 C 407.84849,128.01284 422.22135,100.87484 467.15625,84.5625 C 466.4171,82.68798 465.67273,81.07096 465,79.875 C 461.92468,74.40777 454.75721,68.26691 445.53125,65.875 C 443.85544,65.44053 441.90841,65.28523 439.84375,65.34375 z M 548.40625,71.65625 C 541.4281,71.77048 533.31355,72.47929 523.9375,74.03125 C 526.84678,81.30221 531.34941,87.799001 532.9637,89.413301 C 536.03902,92.488621 557.94979,111.32479 560,113.375 C 562.05019,115.42522 574.33041,124.97793 582.53125,136.9375 C 588.81002,146.09404 591.87189,155.83728 592.96875,159.90625 C 596.78988,149.43444 598.90625,138.1325 598.90625,126.34375 L 598.90625,125.28125 C 598.72816,108.70268 594.41749,93.11728 587,79.5 L 587.75,81.34375 C 587.75003,81.34666 587.75005,81.37139 587.75,81.375 C 587.7464,81.37512 587.72165,81.37502 587.71875,81.375 C 587.71594,81.37184 587.69035,81.34669 587.6875,81.34375 C 586.79752,80.65651 577.15621,71.18561 548.40625,71.65625 z M 519.28125,74.875 C 513.04692,76.04278 506.29239,77.56873 498.96875,79.53125 C 500.95868,84.77682 503.04206,90.53156 505.1875,96.8125 C 531.40686,173.57165 536.00002,217 536,217 L 532,218.625 C 532.61416,216.81543 519.67018,155.2889 500.125,96.875 C 498.21391,91.1634 496.25831,85.8077 494.34375,80.8125 C 487.76223,82.67925 480.75115,84.88391 473.28125,87.46875 C 474.15809,90.45445 474.90901,94.00707 475.59375,98.34375 C 478.66907,117.82076 468.12987,138.30993 466.74295,141.76715 C 464.80514,146.5976 458.21909,162.85669 455.4375,182.71875 C 453.76256,194.67872 455.77614,210.73087 457.3125,214.15625 C 457.32064,214.1603 457.3356,214.1522 457.34375,214.15625 C 470.46339,220.67898 485.26913,224.34375 500.90625,224.34375 C 540.633,224.34375 574.86823,200.65994 590.25,166.65625 L 590.0625,166.9375 C 590.24187,165.77606 587.93723,150.42839 580.84375,141.03125 C 570.49902,127.32699 565.55634,122.36234 547.95865,107.93045 C 532.72909,95.44066 522.83565,83.97745 519.28125,74.875 z M 468.75,89.0625 C 468.54073,89.13747 468.33498,89.20568 468.125,89.28125 C 424.23214,105.07834 408.6562,136.19784 404.8125,145.6875 C 410.42063,173.68053 427.9634,197.36141 451.90625,211.21875 C 451.5957,207.48579 450.78091,195.85137 451.34375,183.75 C 452.02716,169.05681 462.2582,142.07328 463.625,138.65625 C 464.99181,135.23923 471.84581,113.36528 472.1875,106.53125 C 472.39941,102.29295 470.75086,95.17118 468.75,89.0625 z " id="path3136" sodipodi:nodetypes="ccsccccccssccsccscccsccsscccssscccccssscccsccsccssscssccssccsccsssc" style="opacity:1;fill:url(#radialGradient3169);fill-opacity:1;stroke:none;stroke-width:0.5;stroke-linecap:round;stroke-linejoin:bevel;stroke-miterlimit:4;stroke-dasharray:none;stroke-opacity:1"/>
      <path d="M 351,80.862183 A 79.5,39.5 0 1 1 350.99541,80.437885" id="path3143" sodipodi:cx="271.5" sodipodi:cy="80.862183" sodipodi:end="6.2724434" sodipodi:open="true" sodipodi:rx="79.5" sodipodi:ry="39.5" sodipodi:start="0" sodipodi:type="arc" style="opacity:1;fill:url(#radialGradient3171);fill-opacity:1;stroke:none;stroke-width:0.5;stroke-linecap:round;stroke-linejoin:bevel;stroke-miterlimit:4;stroke-dasharray:none;stroke-opacity:1" transform="matrix(0.97952,-0.225386,0.201348,1.09646,207.2789,48.39263)"/>
      <path d="M 371,169.36218 A 82,83 0 1 1 370.99527,168.47062" id="path3153" sodipodi:cx="289" sodipodi:cy="169.36218" sodipodi:end="6.2724434" sodipodi:open="true" sodipodi:rx="82" sodipodi:ry="83" sodipodi:start="0" sodipodi:type="arc" style="opacity:1;fill:url(#radialGradient3173);fill-opacity:1;stroke:none;stroke-width:0.5;stroke-linecap:round;stroke-linejoin:bevel;stroke-miterlimit:4;stroke-dasharray:none;stroke-opacity:1" transform="translate(227,7)"/>
    </g>
  </g>
</svg>
