<?xml version="1.0" encoding="utf-8"?>
<!-- Generator: Adobe Illustrator 17.0.2, SVG Export Plug-In . SVG Version: 6.00 Build 0)  -->
<!DOCTYPE svg PUBLIC "-//W3C//DTD SVG 1.1//EN" "http://www.w3.org/Graphics/SVG/1.1/DTD/svg11.dtd" [
	<!ENTITY st0 "fill:#F5F7F7;">
	<!ENTITY st1 "opacity:0.5;">
	<!ENTITY st2 "opacity:0.7;">
	<!ENTITY st3 "opacity:0.8;">
	<!ENTITY st4 "fill-rule:evenodd;clip-rule:evenodd;fill:#6CB1C7;">
	<!ENTITY st5 "fill:#D3DFE5;">
	<!ENTITY st6 "fill:#CA5DD1;">
	<!ENTITY st7 "fill:#4D4D4D;">
	<!ENTITY st8 "fill:#2C9CAF;">
	<!ENTITY st9 "fill:#FFFFFF;">
	<!ENTITY st10 "fill:#8BFFFF;">
]>
<svg version="1.1" xmlns="http://www.w3.org/2000/svg" xmlns:xlink="http://www.w3.org/1999/xlink" x="0px" y="0px" width="410px"
	 height="410px" viewBox="0 0 410 410" style="enable-background:new 0 0 410 410;" xml:space="preserve">
<g id="レイヤー_1">
	<g id="レイヤー_3">
	</g>
	<g id="レイヤー_4">
	</g>
	<g id="レイヤー_2">
	</g>
	<g id="新規シンボル_4">
		<path style="&st4;" d="M205,113.329c142.97,0,259.194-42.023,16.657-67.646C-20.877,20.06,84.112,85.45,223.961,115.332
			c139.845,29.882,262.217,13.067,30.286-62.685c-231.935-75.752-142.766,10.154-12.157,68.609
			c130.613,58.455,253.789,67.585,42.59-54.987s-141.742-19.908-26.076,64.57c115.666,84.474,234.261,119.146,53.029-44.887
			s-134.529-49.093-38.861,57.708c95.664,106.801,204.497,165.505,61.156-32.819c-143.345-198.324-121.434-76.14-49.949,48.326
			c71.485,124.461,165.799,204.627,66.606-19.325c-99.193-223.948-103.032-99.854-58.855,36.83
			c44.181,136.683,119.851,234.807,69.151-4.977c-50.704-239.788-80.129-119.207-65.186,23.722
			c14.943,142.929,68.666,254.727,68.666,9.583s-53.723-133.346-68.666,9.583c-14.943,142.929,14.482,263.511,65.186,23.722
			c50.7-239.784-24.971-141.66-69.151-4.977c-44.177,136.683-40.338,260.777,58.855,36.83
			c99.193-223.952,4.879-143.782-66.606-19.32s-93.396,246.65,49.949,48.322c143.341-198.324,34.508-139.621-61.156-32.819
			c-95.668,106.805-142.37,221.741,38.861,57.708s62.636-129.357-53.029-44.883s-185.123,187.138,26.076,64.566
			s88.023-113.438-42.59-54.983c-130.609,58.455-219.778,144.361,12.157,68.605c231.931-75.752,109.559-92.564-30.286-62.685
			c-139.849,29.882-244.839,95.272-2.305,69.649C464.194,338.693,347.97,296.67,205,296.67s-259.194,42.023-16.657,67.646
			c242.534,25.623,137.544-39.767-2.305-69.649C46.194,264.788-76.179,281.6,155.752,357.352
			c231.935,75.756,142.766-10.15,12.157-68.605c-130.613-58.455-253.789-67.589-42.59,54.983s141.742,19.908,26.076-64.566
			s-234.261-119.15-53.029,44.883s134.529,49.097,38.861-57.708C41.563,159.538-67.269,100.834,76.072,299.158
			c143.345,198.328,121.434,76.14,49.949-48.322s-165.799-204.631-66.606,19.32c99.193,223.948,103.032,99.854,58.855-36.83
			C74.089,96.644-1.581-1.48,49.119,238.304c50.704,239.788,80.129,119.207,65.186-23.722
			C99.362,71.653,45.639-40.145,45.639,204.999s53.723,133.346,68.666-9.583c14.943-142.929-14.482-263.511-65.186-23.722
			c-50.7,239.784,24.971,141.66,69.151,4.977c44.177-136.683,40.338-260.777-58.855-36.83
			c-99.193,223.952-4.879,143.786,66.606,19.325c71.485-124.465,93.396-246.65-49.949-48.326
			c-143.341,198.324-34.508,139.621,61.156,32.819C232.896,36.859,279.598-78.08,98.366,85.952s-62.636,129.361,53.029,44.887
			c115.666-84.478,185.123-187.143-26.076-64.57s-88.023,113.442,42.59,54.987c130.609-58.455,219.778-144.361-12.157-68.609
			c-231.931,75.752-109.559,92.568,30.286,62.685c139.849-29.882,244.839-95.272,2.305-69.649
			C-54.194,71.306,62.03,113.329,205,113.329z"/>
	</g>
</g>
<g id="レイヤー_6">
</g>
<g id="レイヤー_5">
</g>
</svg>
